<?xml version="1.0" standalone="no"?>
<!DOCTYPE svg PUBLIC "-//W3C//DTD SVG 1.1//EN" "http://www.w3.org/Graphics/SVG/1.1/DTD/svg11.dtd" >
<svg xmlns="http://www.w3.org/2000/svg" xmlns:svg="http://www.w3.org/2000/svg" xmlns:xlink="http://www.w3.org/1999/xlink" viewBox="0 0 1024 1024"><path d="M747.135 962.447Q708.603 953.003 651.58 917.029Q602.141 924.736 567.844 878.518Q503.646 844.504 497.849 726.56Q499.914 614.075 492.645 398.05L427.302 437.909Q393.873 429.046 361.547 414.689Q341.754 413.127 361.929 403.523L400.109 397.2Q407.281 354.511 469.744 335.701L487.9 155.685Q503.292 148.972 470.877 158.864Q522.474 120.278 517.307 145.958L556.136 164.739L570.641 197.546V305.616L683.98 281.751V128.216L674.053 114.227Q693.233 113.493 735.527 128.689L768.661 126.54L746.578 104.776V252.954L906.593 244.542Q928.941 223.324 938.041 268.024Q920.807 458.252 910.552 516.411Q898.03 569.834 899.392 630.007Q855.04 640.711 830.682 634.246Q827.576 647.269 792.029 585.001Q764.281 560.75 769.031 548.632Q754.809 579.964 754.031 599.786Q733.797 610.523 683.753 581.055L709.1 612.808Q678.846 568.793 711.105 366.087L552.17 384.694Q586.616 623.927 568.513 709.353Q585.648 741.956 594.486 809.95Q646.342 877.026 671.295 875.536Q692.9 858.415 764.112 872.752Q771.236 846.607 850.194 875.879L881.707 766.196L872.377 762.608Q878.712 764.276 912.503 722.295L924.732 760.499Q955.61 799.429 930.125 834.164Q957.954 871.38 955.976 938.086Q961.529 929.914 952.069 923.561Q895.295 970.177 866.967 951.971Q769.293 929.134 736.146 951.176ZM279.238 963.029L271.435 964.122Q220.699 799.408 227.149 713.256Q253.48 554.163 214.818 428.255L127.748 575.406Q101.583 583.238 102.158 550.196L96.732 538.826Q88.435 536.141 68.898 521.607Q123.449 411.905 169.069 266.768Q246.023 169.431 327.78 85.458Q311.821 46.544 319.486 79.098L372.483 81.665Q376.054 97.302 386.88 104.131Q374.038 167.164 277.752 307.585Q310.274 531.528 291.806 666.889Q290.185 800.623 326.383 942.96L303.597 911.079Q275.867 964.846 238.733 972.573ZM770.798 547.266L741.884 529.361Q758.328 551.669 787.217 522.739L867.834 563.351Q818.604 502.163 841.918 439.2Q861.41 387.226 834.33 313.66L736.227 358.268Z" fill="black"></path></svg>