<?xml version="1.0" standalone="no"?>
<!DOCTYPE svg PUBLIC "-//W3C//DTD SVG 1.1//EN" "http://www.w3.org/Graphics/SVG/1.1/DTD/svg11.dtd" >
<svg xmlns="http://www.w3.org/2000/svg" xmlns:svg="http://www.w3.org/2000/svg" xmlns:xlink="http://www.w3.org/1999/xlink" viewBox="0 0 1024 1024"><path d="M743.0 951.5Q695.0 941.5 648.0 932.5Q601.0 923.5 555.0 873.0Q509.0 822.5 501.0 731.0Q493.0 639.5 483.0 425.5L405.0 445.5Q389.0 443.5 377.0 433.5Q365.0 419.5 367.0 397.5L377.0 377.5Q401.0 365.5 479.0 345.5L477.0 176.5Q479.0 160.5 489.0 148.5Q503.0 136.5 525.0 138.5L545.0 148.5L555.0 168.5V321.5L679.0 291.5V138.5L689.0 118.5Q705.0 106.5 727.0 108.5L747.0 118.5L757.0 138.5V275.5L898.0 245.5Q929.0 241.5 930.0 281.5Q926.0 451.5 917.0 512.5Q908.0 573.5 889.0 608.5Q870.0 643.5 847.0 641.5Q824.0 639.5 775.0 593.5Q763.0 579.5 765.0 557.5Q763.0 581.5 749.0 597.5Q735.0 609.5 713.0 607.5L693.0 597.5Q683.0 581.5 679.0 375.5L559.0 401.5Q571.0 623.5 578.0 700.0Q585.0 776.5 625.0 817.0Q665.0 857.5 694.0 862.5Q723.0 867.5 764.5 870.5Q806.0 873.5 866.0 871.5L860.0 785.5L870.0 765.5Q884.0 753.5 906.0 755.5L926.0 765.5Q940.0 799.5 943.0 837.5Q946.0 875.5 946.0 909.0Q946.0 942.5 923.0 949.0Q900.0 955.5 849.0 954.5Q798.0 953.5 743.0 951.5ZM277.0 948.5 256.0 938.5Q236.0 810.5 231.0 678.0Q226.0 545.5 220.0 415.5L146.0 553.5Q132.0 565.5 110.0 563.5L90.0 553.5Q80.0 539.5 78.0 521.5Q126.0 405.5 194.0 300.0Q262.0 194.5 317.0 80.5Q331.0 68.5 353.0 70.5L373.0 80.5Q385.0 96.5 383.0 118.5Q365.0 170.5 295.0 323.5Q305.0 559.5 311.0 679.0Q317.0 798.5 323.0 918.5L313.0 938.5Q299.0 950.5 277.0 948.5ZM767.0 549.5 775.0 537.5Q790.0 525.5 812.0 527.5L834.0 537.5Q844.0 489.5 848.0 439.5Q852.0 389.5 852.0 337.5L757.0 353.5Z" fill="black"></path></svg>